# xmcd
#
# Track frame offsets: 
#        150
#        9062
#        18536
#        28937
#        39437
#        51587
#        63625
#        74762
#        99488
#        116012
#        122690
#        143800
#        167012
#        188950
#        204245
#        219812
#        235900
#        261212
#
# Disc length: 3821 seconds
#
# Revision: 1
# Processed by: cddbd v1.5.2PL0 Copyright (c) Steve Scherf et al.
# Submitted via: ExactAudioCopy v0.99pb1
#
DISCID=040eeb12
DTITLE=Jeff Beck and The Big Town Playboys - Exhaust Note [CD3 - Nove
DTITLE=mber 30, 2007)
DYEAR=2008
DGENRE=Blues
TTITLE0=Leo Green introduction
TTITLE1=Race with the devil
TTITLE2=Crazy legs
TTITLE3=Train kept a rollin'
TTITLE4=My baby left me
TTITLE5=Matchbox
TTITLE6=Baby blue
TTITLE7=Honky tonk (with Leo Green on sax)
TTITLE8=Beck's Bolero
TTITLE9=Breath eternal
TTITLE10=Stratus
TTITLE11='cause we've ended as lovers
TTITLE12=Behind the veil
TTITLE13=You never know
TTITLE14=Nadia
TTITLE15=Blast from the east
TTITLE16=Led boots
TTITLE17=Angel footsteps
EXTD=
EXTT0=
EXTT1=
EXTT2=
EXTT3=
EXTT4=
EXTT5=
EXTT6=
EXTT7=
EXTT8=
EXTT9=
EXTT10=
EXTT11=
EXTT12=
EXTT13=
EXTT14=
EXTT15=
EXTT16=
EXTT17=
PLAYORDER=
